<?xml version="1.0" encoding="utf-8"?>
<!-- Generator: Adobe Illustrator 21.1.0, SVG Export Plug-In . SVG Version: 6.00 Build 0)  -->
<svg version="1.1" id="Layer_1" xmlns="http://www.w3.org/2000/svg" xmlns:xlink="http://www.w3.org/1999/xlink" x="0px" y="0px"
	 viewBox="0 0 815 836" style="enable-background:new 0 0 815 836;" xml:space="preserve">
<style type="text/css">
	.st0{fill:#FFFFFF;}
</style>
<path class="st0" d="M8,370c0-12.3,0-24.7,0-37c0.3-1.6,0.7-3.2,0.9-4.9c1.9-14,3-28.2,5.8-42c14.1-68.4,46.7-126.6,97.8-174.2
	c49.1-45.7,107-73.7,173.4-84c10.7-1.7,21.4-2.6,32.1-3.9c11.7,0,23.3,0,35,0c1.8,0.3,3.6,0.7,5.4,0.9
	c47.5,3.3,92.6,15.7,133.9,39.3c95.5,54.4,152.2,136.1,167.8,245.2c8.3,57.6,0.5,113.6-21.8,167.3c-6.7,16.1-15,31.4-23.4,48.6
	c0.6,0.4,2.5,1.3,3.9,2.7c60.6,60.5,121.2,121,181.6,181.6c3,3,5.1,6.9,7.5,10.3c0,3.3,0,6.7,0,10c-5.2,18.2-17,32-30.4,44.7
	c-5.4,5.2-10.7,10.5-15.9,15.9c-12,12.6-25.4,22.9-42.7,27.3c-3,0-6,0-9,0c-3.5-2.5-7.4-4.5-10.3-7.5
	c-60.2-60-120.2-120.1-180.3-180.2c-1.4-1.4-2.2-3.4-3.3-5c-1.6,1.4-1.9,1.5-2.2,1.6c-1,0.6-2,1.2-3,1.9
	c-69.2,43.1-144.3,58.8-224.8,47c-56.8-8.3-108.1-30.6-153-66.5C65.9,555.6,25.5,486.1,11.9,401.1C10.2,390.8,9.3,380.4,8,370z
	 M335.7,570.7c120.7-0.1,218.4-98.1,218.5-219c0-121.2-97.7-218.9-219-218.8c-120.9,0.1-218.7,98-218.6,218.7
	C116.7,472.6,214.9,570.8,335.7,570.7z"/>
</svg>
