<?xml version="1.0" encoding="utf-8"?>
<!-- Generator: Adobe Illustrator 21.1.0, SVG Export Plug-In . SVG Version: 6.00 Build 0)  -->
<svg version="1.1" id="Layer_1" xmlns="http://www.w3.org/2000/svg" xmlns:xlink="http://www.w3.org/1999/xlink" x="0px" y="0px"
	 viewBox="0 0 849.6 637.6" style="enable-background:new 0 0 849.6 637.6;" xml:space="preserve">
<style type="text/css">
	.st0{fill:#FFFFFF;}
</style>
<g>
	<title>Layer 1</title>
	<g id="FreeVector.com_Buttons">
	</g>
	<g id="FreeVector_Graphics">
		<g id="svg_281">
		</g>
		<g id="svg_312">
			<g id="svg_313">
				<path id="svg_314" class="st0" d="M260.7,95.8c10-4.2,21.1-2.7,31.6-2.9c138,0,275.9,0.1,413.8,0c10.4-0.3,21.8,2.6,28.5,11.7
					c7.4,9.4,7.1,23.1,2.7,33.9c-27.3,72.5-54.8,145-82.1,217.6c-9,25.1-33.9,42.8-59.2,41.9c-69.5-0.1-139-0.1-208.6,0
					c-25.6,0.7-50.5-17.7-59-43.3c-25.1-66.8-50.4-133.5-75.6-200.2c-3.8-10.5-9.2-20.9-9.1-32.4C243.7,110.6,250.6,99.9,260.7,95.8
					z"/>
				<path id="svg_315" class="st0" d="M68.6,205.2c-0.6-16,13.8-30.5,29.9-30.2c36.9-0.2,73.7,0,110.6-0.1
					c7.2-0.3,12.4,5.6,18.3,8.8c4.7,3.7,11.4,5.9,13.5,12c29.8,70,59.8,139.9,89.7,209.9c95.3,0,190.7,0.1,286,0
					c10.2-0.2,21.7-0.1,29.6,7.3c13.7,10.7,14.5,33.3,1.6,45c-7.7,8.1-19.4,9.3-29.9,8.7c26.4,14.1,33.2,52.9,12.2,74.3
					c-18.8,21.9-57.2,20.2-73.9-3.3c-18-22.1-9.9-57.7,15-71.2c-57.7,0.2-115.3,0.3-173-0.1c25.6,14,33.2,51.2,13.5,73.1
					c-18.5,23.4-58.8,22.2-75.7-2.5c-17.4-22.2-9.2-57.3,15.5-70.6c-14.4,0.5-28.7-0.4-43.1,0.7c-8.1-6.6-17.7-11.2-25.4-18
					c-31.1-71-61-142.5-91.7-213.6c-30.9-0.1-61.8,0.1-92.7-0.1C82.3,236.1,68,221.2,68.6,205.2z"/>
			</g>
		</g>
	</g>
</g>
</svg>
